<svg width="32" height="32" viewBox="0 0 32 32" fill="none" xmlns="http://www.w3.org/2000/svg">
  <!-- Background -->
  <rect width="32" height="32" rx="6" fill="#65B3AE"/>

  <!-- Shield -->
  <path d="M16 5C16 5 8 7.5 8 12.5V20C8 23.75 11.25 27.5 16 29C20.75 27.5 24 23.75 24 20V12.5C24 7.5 16 5 16 5Z" fill="#1C2128"/>

  <!-- Stylized m -->
  <path d="M11 21V14.5C11 13.25 11.875 12.375 13.125 12.375C14.375 12.375 15.25 13.25 15.25 14.5V21" stroke="#65B3AE" stroke-width="2" stroke-linecap="round" fill="none"/>
  <path d="M15.25 21V14.5C15.25 13.25 16.125 12.375 17.375 12.375C18.625 12.375 19.5 13.25 19.5 14.5V21" stroke="#65B3AE" stroke-width="2" stroke-linecap="round" fill="none"/>

  <!-- Checkmark -->
  <path d="M14 9L15.5 10.5L19 7" stroke="#65B3AE" stroke-width="1.5" stroke-linecap="round" stroke-linejoin="round"/>
</svg>
